<svg width="693" height="72" viewBox="0 0 693 72" fill="none" xmlns="http://www.w3.org/2000/svg">
<path d="M24.2117 49.1575C22.66 46.0418 32.8379 27.5874 36 27.5874C39.1667 27.5889 49.3229 46.0759 47.7883 49.1575C46.2536 52.2392 25.7633 52.2732 24.2117 49.1575Z" fill="white"/>
<path fill-rule="evenodd" clip-rule="evenodd" d="M0.481872 64.996C-4.19478 55.6055 26.4765 0.000854492 36 0.000854492C45.5328 0.000854492 76.153 55.7138 71.5274 64.996C66.9018 74.2781 5.15853 74.3864 0.481872 64.996ZM12.7358 56.8478C15.8005 63.0003 56.2536 62.9322 59.2843 56.8478C62.3149 50.7618 42.2515 14.2613 36.0093 14.2613C29.767 14.2613 9.67119 50.6953 12.7358 56.8478Z" fill="white"/>
<path d="M225.22 56C224.94 56 224.8 56 224.693 55.9455C224.599 55.8976 224.522 55.8211 224.474 55.727C224.42 55.6201 224.42 55.4801 224.42 55.2V26.8C224.42 26.52 224.42 26.38 224.474 26.273C224.522 26.1789 224.599 26.1025 224.693 26.0545C224.8 26 224.94 26 225.22 26H230.403C230.683 26 230.823 26 230.93 26.0545C231.024 26.1025 231.1 26.1789 231.148 26.273C231.203 26.38 231.203 26.52 231.203 26.8V29.6949C232.012 28.2611 233.151 27.1765 234.622 26.4412C236.129 25.7059 237.821 25.3383 239.696 25.3383C241.901 25.3383 243.85 25.8162 245.541 26.7721C247.269 27.728 248.611 29.0699 249.567 30.7978C250.523 32.489 251.001 34.4559 251.001 36.6986V55.2C251.001 55.4801 251.001 55.6201 250.946 55.727C250.898 55.8211 250.822 55.8976 250.728 55.9455C250.621 56 250.481 56 250.201 56H244.576C244.296 56 244.156 56 244.049 55.9455C243.955 55.8976 243.879 55.8211 243.831 55.727C243.776 55.6201 243.776 55.4801 243.776 55.2V38.4081C243.776 36.4228 243.207 34.8603 242.067 33.7206C240.964 32.5441 239.512 31.9559 237.71 31.9559C235.909 31.9559 234.438 32.5441 233.298 33.7206C232.196 34.8971 231.644 36.4596 231.644 38.4081V55.2C231.644 55.4801 231.644 55.6201 231.59 55.727C231.542 55.8211 231.465 55.8976 231.371 55.9455C231.264 56 231.124 56 230.844 56H225.22Z" fill="white"/>
<path d="M213.68 22.636C213.4 22.636 213.26 22.636 213.153 22.5815C213.059 22.5336 212.983 22.4571 212.935 22.363C212.88 22.256 212.88 22.116 212.88 21.836V15.7154C212.88 15.4354 212.88 15.2954 212.935 15.1884C212.983 15.0943 213.059 15.0178 213.153 14.9699C213.26 14.9154 213.4 14.9154 213.68 14.9154H219.304C219.584 14.9154 219.724 14.9154 219.831 14.9699C219.925 15.0178 220.002 15.0943 220.05 15.1884C220.104 15.2954 220.104 15.4354 220.104 15.7154V21.836C220.104 22.116 220.104 22.256 220.05 22.363C220.002 22.4571 219.925 22.5336 219.831 22.5815C219.724 22.636 219.584 22.636 219.304 22.636H213.68Z" fill="white"/>
<path d="M213.68 56C213.4 56 213.26 56 213.153 55.9455C213.059 55.8976 212.983 55.8211 212.935 55.727C212.88 55.62 212.88 55.48 212.88 55.2V26.8C212.88 26.52 212.88 26.38 212.935 26.273C212.983 26.1789 213.059 26.1024 213.153 26.0545C213.26 26 213.4 26 213.68 26H219.304C219.584 26 219.724 26 219.831 26.0545C219.925 26.1024 220.002 26.1789 220.05 26.273C220.104 26.38 220.104 26.52 220.104 26.8V55.2C220.104 55.48 220.104 55.62 220.05 55.727C220.002 55.8211 219.925 55.8976 219.831 55.9455C219.724 56 219.584 56 219.304 56H213.68Z" fill="white"/>
<path d="M196.968 55.9455C197.075 56 197.215 56 197.495 56H203.12C203.4 56 203.54 56 203.646 55.9455C203.741 55.8976 203.817 55.8211 203.865 55.727C203.92 55.62 203.92 55.48 203.92 55.2V32.4522H209.792C210.072 32.4522 210.212 32.4522 210.319 32.3977C210.413 32.3498 210.49 32.2733 210.538 32.1792C210.592 32.0722 210.592 31.9322 210.592 31.6522V26.8C210.592 26.52 210.592 26.3799 210.538 26.273C210.49 26.1789 210.413 26.1024 210.319 26.0545C210.212 26 210.072 26 209.792 26H203.92V25.0073C203.92 23.5 204.361 22.397 205.243 21.6985C206.162 20.9632 207.412 20.5956 208.993 20.5956C209.296 20.5956 209.609 20.6102 209.932 20.6395C210.277 20.6708 210.45 20.6865 210.566 20.636C210.674 20.5897 210.751 20.5188 210.807 20.4161C210.868 20.3043 210.868 20.1418 210.868 19.8166V15.3891C210.868 15.0846 210.868 14.9323 210.807 14.7999C210.757 14.6897 210.662 14.5808 210.559 14.5156C210.437 14.4374 210.298 14.4184 210.022 14.3803C209.408 14.2959 208.753 14.2537 208.056 14.2537C204.6 14.2537 201.842 15.1912 199.783 17.0662C197.725 18.9412 196.695 21.5882 196.695 25.0073V26H190.201C190.184 26 190.167 26 190.15 26H186.53C186.23 26 186.079 26 185.95 26.0492C185.836 26.0926 185.735 26.1631 185.654 26.2547C185.563 26.3584 185.511 26.499 185.406 26.7803L177.976 46.6801L170.493 26.7777C170.388 26.4973 170.335 26.3571 170.244 26.2538C170.163 26.1625 170.062 26.0922 169.948 26.049C169.819 26 169.669 26 169.37 26H163.601C163.207 26 163.01 26 162.884 26.0829C162.775 26.1554 162.698 26.2682 162.671 26.3969C162.64 26.544 162.712 26.7273 162.857 27.094L174.281 56L173.62 57.5993C173.031 58.8493 172.351 59.8603 171.579 60.6324C170.844 61.4044 169.649 61.7904 167.995 61.7904C167.406 61.7904 166.781 61.7353 166.12 61.625C165.865 61.5968 165.622 61.5631 165.39 61.524C165.001 61.4586 164.806 61.4259 164.681 61.4722C164.564 61.5155 164.483 61.584 164.421 61.6922C164.355 61.8078 164.355 61.9901 164.355 62.3547V66.6834C164.355 66.9268 164.355 67.0485 164.4 67.1649C164.437 67.2591 164.512 67.3651 164.589 67.4307C164.684 67.5118 164.783 67.5464 164.981 67.6158C165.437 67.7751 165.927 67.8921 166.451 67.9669C167.223 68.114 168.013 68.1875 168.822 68.1875C171.653 68.1875 174.006 67.3787 175.881 65.761C177.792 64.1801 179.318 61.9375 180.458 59.0331L190.975 32.4522H196.695V55.2C196.695 55.48 196.695 55.62 196.75 55.727C196.798 55.8211 196.874 55.8976 196.968 55.9455Z" fill="white"/>
<path d="M154.363 56C154.083 56 153.943 56 153.836 55.9455C153.741 55.8976 153.665 55.8211 153.617 55.727C153.563 55.62 153.563 55.48 153.563 55.2V15.0537C153.563 14.7736 153.563 14.6336 153.617 14.5267C153.665 14.4326 153.741 14.3561 153.836 14.3082C153.943 14.2537 154.083 14.2537 154.363 14.2537H159.987C160.267 14.2537 160.407 14.2537 160.514 14.3082C160.608 14.3561 160.684 14.4326 160.732 14.5267C160.787 14.6336 160.787 14.7736 160.787 15.0537V55.2C160.787 55.48 160.787 55.62 160.732 55.727C160.684 55.8211 160.608 55.8976 160.514 55.9455C160.407 56 160.267 56 159.987 56H154.363Z" fill="white"/>
<path d="M142.743 56C142.463 56 142.323 56 142.216 55.9455C142.122 55.8976 142.045 55.8211 141.997 55.727C141.943 55.62 141.943 55.48 141.943 55.2V15.0537C141.943 14.7736 141.943 14.6336 141.997 14.5267C142.045 14.4326 142.122 14.3561 142.216 14.3082C142.323 14.2537 142.463 14.2537 142.743 14.2537H148.367C148.647 14.2537 148.787 14.2537 148.894 14.3082C148.988 14.3561 149.065 14.4326 149.113 14.5267C149.167 14.6336 149.167 14.7736 149.167 15.0537V55.2C149.167 55.48 149.167 55.62 149.113 55.727C149.065 55.8211 148.988 55.8976 148.894 55.9455C148.787 56 148.647 56 148.367 56H142.743Z" fill="white"/>
<path d="M124.61 56.6618C121.522 56.6618 118.819 55.9633 116.503 54.5662C114.187 53.1691 112.386 51.2758 111.099 48.8861C109.812 46.4963 109.169 43.8493 109.169 40.9449C109.169 37.9302 109.812 35.2647 111.099 32.9486C112.422 30.5956 114.206 28.739 116.448 27.3787C118.728 26.0184 121.264 25.3383 124.058 25.3383C127.183 25.3383 129.831 26.0184 132 27.3787C134.169 28.7022 135.823 30.4669 136.963 32.6728C138.103 34.8787 138.672 37.3236 138.672 40.0074C138.672 40.5588 138.636 41.1103 138.562 41.6618C138.541 41.9607 138.501 42.241 138.442 42.5027C138.405 42.6675 138.387 42.7499 138.327 42.8331C138.279 42.8995 138.194 42.9677 138.119 43C138.024 43.0405 137.925 43.0405 137.726 43.0405H116.669C116.889 45.2463 117.735 47.0111 119.206 48.3346C120.676 49.6581 122.496 50.3199 124.665 50.3199C126.319 50.3199 127.717 49.9706 128.856 49.2721C129.735 48.7229 130.47 48.0609 131.062 47.2861C131.303 46.97 131.424 46.812 131.546 46.7444C131.663 46.6792 131.764 46.6555 131.898 46.6614C132.037 46.6674 132.194 46.7442 132.506 46.8976L136.775 48.9918C137.014 49.109 137.134 49.1676 137.206 49.2658C137.267 49.3481 137.304 49.4618 137.304 49.5641C137.304 49.6861 137.246 49.7957 137.132 50.0148C136.177 51.8418 134.669 53.3773 132.606 54.6213C130.327 55.9816 127.661 56.6618 124.61 56.6618ZM124.058 31.2941C122.257 31.2941 120.694 31.8456 119.371 32.9486C118.084 34.0147 117.239 35.5405 116.834 37.5258H130.952C130.805 35.6875 130.088 34.1986 128.801 33.0588C127.551 31.8824 125.97 31.2941 124.058 31.2941Z" fill="white"/>
<path d="M90.8008 56C90.5208 56 90.3808 56 90.2738 55.9455C90.1798 55.8975 90.1033 55.821 90.0553 55.727C90.0008 55.62 90.0008 55.48 90.0008 55.2V49.9066C90.0008 49.6266 90.0008 49.4865 90.0553 49.3796C90.1033 49.2855 90.1798 49.209 90.2738 49.1611C90.3808 49.1066 90.5208 49.1066 90.8008 49.1066H92.3722C94.1369 49.1066 95.5339 48.6103 96.5633 47.6176C97.6295 46.5882 98.1626 45.2279 98.1626 43.5367V15.7154C98.1626 15.4354 98.1626 15.2954 98.2171 15.1884C98.265 15.0943 98.3415 15.0178 98.4356 14.9699C98.5426 14.9154 98.6826 14.9154 98.9626 14.9154H104.918C105.198 14.9154 105.338 14.9154 105.445 14.9699C105.539 15.0178 105.615 15.0943 105.663 15.1884C105.718 15.2954 105.718 15.4354 105.718 15.7154V43.261C105.718 45.7978 105.166 48.022 104.063 49.9338C102.997 51.8456 101.453 53.3345 99.431 54.4007C97.4457 55.4669 95.0927 56 92.3722 56H90.8008Z" fill="white"/>
<path d="M532.835 55.0625C535.07 56.1232 537.702 56.6535 540.732 56.6535C543.668 56.6535 546.234 56.1516 548.431 55.1478C550.647 54.125 552.371 52.7141 553.602 50.9148C554.833 49.0966 555.448 47.0133 555.448 44.6648C555.448 43.2444 555.212 41.9565 554.738 40.8012C554.265 39.6269 553.545 38.5853 552.579 37.6762C551.632 36.7482 550.429 35.9338 548.971 35.233C547.532 34.5133 545.818 33.8883 543.829 33.358L539.028 32.0512C536.982 31.5019 535.325 30.8769 534.056 30.1762C532.787 29.4754 531.859 28.661 531.272 27.733C530.685 26.805 530.392 25.7444 530.392 24.5512C530.392 22.9982 530.818 21.625 531.67 20.4319C532.541 19.2197 533.725 18.2728 535.221 17.591C536.736 16.9091 538.46 16.5682 540.392 16.5682C543.403 16.5682 545.818 17.3826 547.636 19.0114C549.473 20.6213 550.477 22.7898 550.647 25.5171H554.454C554.359 22.9982 553.725 20.8012 552.551 18.9262C551.395 17.0512 549.785 15.6023 547.721 14.5796C545.676 13.5379 543.27 13.0171 540.505 13.0171C537.74 13.0171 535.306 13.5095 533.204 14.4944C531.121 15.4792 529.492 16.8523 528.318 18.6137C527.162 20.3561 526.585 22.3921 526.585 24.7216C526.585 27.4489 527.494 29.6932 529.312 31.4546C531.13 33.216 534.037 34.6175 538.034 35.6591L542.778 36.9375C544.918 37.5057 546.623 38.1591 547.892 38.8978C549.179 39.6175 550.117 40.4603 550.704 41.4262C551.291 42.3921 551.585 43.519 551.585 44.8069C551.585 46.4735 551.13 47.9319 550.221 49.1819C549.331 50.4319 548.072 51.4072 546.443 52.108C544.814 52.7898 542.911 53.1307 540.732 53.1307C538.46 53.1307 536.49 52.7425 534.823 51.966C533.176 51.1894 531.907 50.091 531.017 48.6705C530.126 47.2311 529.653 45.536 529.596 43.5853H525.676C525.732 46.2368 526.376 48.5474 527.607 50.5171C528.857 52.4678 530.6 53.983 532.835 55.0625Z" fill="white"/>
<path fill-rule="evenodd" clip-rule="evenodd" d="M643.487 54.608C645.532 55.9337 647.957 56.5966 650.76 56.5966C652.862 56.5966 654.794 56.1989 656.555 55.4034C658.335 54.608 659.822 53.4906 661.015 52.0512C662.228 50.6118 663.032 48.9356 663.43 47.0228H659.765C659.424 48.2728 658.828 49.3712 657.976 50.3182C657.142 51.2462 656.11 51.9659 654.879 52.4773C653.648 52.9887 652.275 53.2444 650.76 53.2444C648.695 53.2444 646.906 52.7519 645.39 51.7671C643.894 50.7633 642.739 49.3807 641.924 47.6194C641.164 45.9567 640.759 44.0627 640.708 41.9375H663.942V40.8012C663.942 38.5474 663.629 36.483 663.004 34.608C662.379 32.733 661.47 31.1042 660.277 29.7216C659.103 28.339 657.692 27.2784 656.044 26.5398C654.415 25.7822 652.578 25.4034 650.532 25.4034C647.919 25.4034 645.599 26.0758 643.572 27.4205C641.546 28.7652 639.955 30.6118 638.799 32.9603C637.663 35.3087 637.095 37.9981 637.095 41.0284C637.095 44.0398 637.644 46.7197 638.743 49.0682C639.86 51.4167 641.442 53.2633 643.487 54.608ZM640.756 38.7273C640.89 37.0091 641.28 35.475 641.924 34.125C642.758 32.4205 643.913 31.0947 645.39 30.1478C646.868 29.1819 648.582 28.6989 650.532 28.6989C652.483 28.6989 654.188 29.1629 655.646 30.0909C657.123 31.019 658.269 32.3163 659.084 33.983C659.782 35.3647 660.188 36.9461 660.301 38.7273H640.756Z" fill="white"/>
<path d="M668.224 64.608V67.875H671.008C672.258 67.875 673.366 67.6572 674.332 67.2216C675.298 66.786 676.15 66.1136 676.889 65.2045C677.627 64.2955 678.281 63.1307 678.849 61.7102L692.997 26H689.105L682.059 44.3239C681.51 45.7633 680.961 47.2121 680.411 48.6705C680.038 49.6488 679.674 50.6272 679.318 51.6056C678.962 50.6272 678.597 49.6488 678.224 48.6705C677.694 47.2121 677.144 45.7633 676.576 44.3239L669.446 26H665.497L677.429 55.9148L675.582 60.517C675.184 61.5398 674.768 62.3447 674.332 62.9318C673.915 63.5379 673.442 63.964 672.911 64.2102C672.4 64.4754 671.766 64.608 671.008 64.608H668.224Z" fill="white"/>
<path d="M619.801 56L607.955 26H611.903L619.034 44.3239C619.602 45.7633 620.142 47.2121 620.653 48.6705C621.029 49.6911 621.401 50.7118 621.767 51.7324C622.139 50.7118 622.507 49.6911 622.869 48.6705C623.4 47.2121 623.939 45.7633 624.489 44.3239L631.563 26H635.455L623.58 56H619.801Z" fill="white"/>
<path d="M592.593 26.0001V56.0001H596.229V37.2501C596.229 35.4887 596.56 34.0114 597.223 32.8182C597.886 31.6251 598.776 30.7254 599.894 30.1194C601.011 29.4944 602.242 29.1819 603.587 29.1819C604.117 29.1819 604.572 29.2103 604.951 29.2671C605.348 29.3239 605.623 29.3713 605.774 29.4091V25.7444C605.604 25.7254 605.386 25.7065 605.121 25.6876C604.856 25.6497 604.543 25.6307 604.184 25.6307C602.214 25.6307 600.538 26.1232 599.155 27.108C597.773 28.0739 596.778 29.3713 596.172 31.0001H596.087V26.0001H592.593Z" fill="white"/>
<path d="M572.373 56.5398C570.327 56.5398 568.462 56.0947 566.776 55.2045C565.11 54.2955 563.784 52.9792 562.799 51.2557C561.833 49.5322 561.35 47.4299 561.35 44.9489V26H564.986V44.7216C564.986 47.411 565.706 49.4848 567.146 50.9432C568.585 52.4015 570.536 53.1307 572.998 53.1307C574.627 53.1307 576.094 52.7992 577.401 52.1364C578.727 51.4735 579.769 50.4792 580.526 49.1534C581.303 47.8277 581.691 46.1799 581.691 44.2102V26H585.356V56H581.776V51.2103C580.968 52.6712 579.946 53.8227 578.708 54.6648C576.871 55.9148 574.759 56.5398 572.373 56.5398Z" fill="white"/>
<path fill-rule="evenodd" clip-rule="evenodd" d="M494.497 56.5966C491.694 56.5966 489.27 55.9337 487.224 54.608C485.179 53.2633 483.598 51.4167 482.48 49.0682C481.382 46.7197 480.832 44.0398 480.832 41.0284C480.832 37.9981 481.401 35.3087 482.537 32.9603C483.692 30.6118 485.283 28.7652 487.31 27.4205C489.336 26.0758 491.656 25.4034 494.27 25.4034C496.315 25.4034 498.153 25.7822 499.781 26.5398C501.429 27.2784 502.84 28.339 504.014 29.7216C505.207 31.1042 506.117 32.733 506.742 34.608C507.367 36.483 507.679 38.5474 507.679 40.8012V41.9375H484.446C484.496 44.0627 484.901 45.9567 485.662 47.6194C486.476 49.3807 487.632 50.7633 489.128 51.7671C490.643 52.7519 492.433 53.2444 494.497 53.2444C496.012 53.2444 497.385 52.9887 498.617 52.4773C499.848 51.9659 500.88 51.2462 501.713 50.3182C502.565 49.3712 503.162 48.2728 503.503 47.0228H507.168C506.77 48.9356 505.965 50.6118 504.753 52.0512C503.56 53.4906 502.073 54.608 500.293 55.4034C498.531 56.1989 496.599 56.5966 494.497 56.5966ZM484.493 38.7273H504.038C503.926 36.9461 503.52 35.3647 502.821 33.983C502.007 32.3163 500.861 31.019 499.384 30.0909C497.925 29.1629 496.221 28.6989 494.27 28.6989C492.319 28.6989 490.605 29.1819 489.128 30.1478C487.651 31.0947 486.495 32.4205 485.662 34.125C485.017 35.475 484.627 37.0091 484.493 38.7273Z" fill="white"/>
<path d="M465.698 26.0001V56.0001H469.334V37.2501C469.334 35.4887 469.666 34.0114 470.328 32.8182C470.991 31.6251 471.881 30.7254 472.999 30.1194C474.116 29.4944 475.347 29.1819 476.692 29.1819C477.222 29.1819 477.677 29.2103 478.056 29.2671C478.453 29.3239 478.728 29.3713 478.88 29.4091V25.7444C478.709 25.7254 478.491 25.7065 478.226 25.6876C477.961 25.6497 477.648 25.6307 477.289 25.6307C475.319 25.6307 473.643 26.1232 472.26 27.108C470.878 28.0739 469.883 29.3713 469.277 31.0001H469.192V26.0001H465.698Z" fill="white"/>
<path fill-rule="evenodd" clip-rule="evenodd" d="M445.08 56.4545C443.186 56.4545 441.453 56.1326 439.881 55.4886C438.309 54.8257 437.059 53.8409 436.131 52.5341C435.203 51.2083 434.739 49.5701 434.739 47.6193C434.739 46.0473 435.033 44.75 435.62 43.7273C436.226 42.7045 437.069 41.8807 438.148 41.2557C439.228 40.6117 440.506 40.1098 441.984 39.75C443.461 39.3901 445.08 39.0966 446.842 38.8693C448.717 38.6041 450.241 38.3863 451.415 38.2159C452.59 38.0265 453.451 37.7519 454.001 37.392C454.569 37.0132 454.853 36.4356 454.853 35.6591V35.2045C454.853 33.9545 454.54 32.8466 453.915 31.8807C453.29 30.9148 452.4 30.1572 451.245 29.6079C450.109 29.0398 448.773 28.7557 447.239 28.7557C445.705 28.7557 444.332 29.0303 443.12 29.5795C441.927 30.1098 440.97 30.8485 440.251 31.7954C439.55 32.7424 439.171 33.803 439.114 34.9773H435.421C435.478 33.1591 436.018 31.5398 437.04 30.1193C438.063 28.6799 439.446 27.5435 441.188 26.7102C442.949 25.8769 444.967 25.4602 447.239 25.4602C448.906 25.4602 450.431 25.6969 451.813 26.1704C453.196 26.6439 454.379 27.3163 455.364 28.1875C456.368 29.0587 457.135 30.0909 457.665 31.2841C458.215 32.4583 458.489 33.7651 458.489 35.2045V56H454.853V51.0852H454.768C454.332 52.0132 453.698 52.8939 452.864 53.7272C452.05 54.5416 450.999 55.2045 449.711 55.7159C448.423 56.2083 446.879 56.4545 445.08 56.4545ZM445.535 53.1307C447.542 53.1307 449.237 52.7519 450.62 51.9943C452.003 51.2367 453.054 50.1951 453.773 48.8693C454.493 47.5246 454.853 45.9905 454.853 44.267V40.0625C454.588 40.3087 454.199 40.5265 453.688 40.7159C453.177 40.8863 452.561 41.0568 451.842 41.2273C451.122 41.3788 450.326 41.5208 449.455 41.6534C448.584 41.786 447.656 41.9185 446.671 42.0511C445.004 42.2784 443.556 42.6193 442.324 43.0738C441.093 43.5094 440.137 44.106 439.455 44.8636C438.792 45.6023 438.461 46.5776 438.461 47.7897C438.461 48.9261 438.764 49.892 439.37 50.6875C439.976 51.4829 440.809 52.089 441.87 52.5057C442.931 52.9223 444.152 53.1307 445.535 53.1307Z" fill="white"/>
<path d="M390.627 26L399.747 56H403.639L409.008 38.7273C409.349 37.6288 409.671 36.5208 409.974 35.4034L410.883 32.0511C411.018 31.5452 411.153 31.043 411.288 30.5446C411.422 31.043 411.552 31.5452 411.678 32.0511L412.588 35.4034C412.891 36.5208 413.203 37.6288 413.525 38.7273L418.838 56H422.815L431.934 26H428.127L423.411 42.0511C422.9 43.8314 422.398 45.6496 421.906 47.5057C421.52 48.9434 421.135 50.3694 420.75 51.7839C420.353 50.3694 419.962 48.9434 419.576 47.5057C419.084 45.6496 418.572 43.8314 418.042 42.0511L413.156 26H409.406L404.463 42.0511C403.932 43.8314 403.411 45.6496 402.9 47.5057C402.507 48.9711 402.114 50.4245 401.722 51.8659C401.332 50.4245 400.948 48.9711 400.57 47.5057C400.097 45.6496 399.595 43.8314 399.065 42.0511L394.434 26H390.627Z" fill="white"/>
<path fill-rule="evenodd" clip-rule="evenodd" d="M372.339 56.5397C369.782 56.5397 367.519 55.8863 365.549 54.5795C363.58 53.2727 362.036 51.4545 360.919 49.125C359.82 46.7954 359.271 44.0871 359.271 41C359.271 37.9128 359.82 35.2045 360.919 32.875C362.036 30.5265 363.58 28.7083 365.549 27.4204C367.519 26.1136 369.782 25.4602 372.339 25.4602C373.854 25.4602 375.275 25.7159 376.601 26.2272C377.926 26.7197 379.091 27.4299 380.095 28.3579C381.118 29.2859 381.904 30.3844 382.453 31.6534H382.481V13.6704H386.146V56H382.567V50.3181H382.51C381.904 51.606 381.089 52.7234 380.067 53.6704C379.044 54.5984 377.879 55.3087 376.572 55.8011C375.265 56.2935 373.854 56.5397 372.339 56.5397ZM372.822 53.1875C374.83 53.1875 376.582 52.6856 378.078 51.6818C379.574 50.678 380.729 49.267 381.544 47.4488C382.358 45.6117 382.765 43.4621 382.765 41C382.765 38.5189 382.358 36.3693 381.544 34.5511C380.729 32.714 379.574 31.2935 378.078 30.2897C376.582 29.2859 374.83 28.784 372.822 28.784C370.928 28.784 369.233 29.2575 367.737 30.2045C366.26 31.1515 365.095 32.534 364.243 34.3522C363.39 36.1704 362.964 38.3863 362.964 41C362.964 43.5947 363.39 45.8011 364.243 47.6193C365.095 49.4375 366.26 50.82 367.737 51.767C369.233 52.714 370.928 53.1875 372.822 53.1875Z" fill="white"/>
<path d="M344.136 26.0001V56.0001H347.773V37.2501C347.773 35.4887 348.104 34.0114 348.767 32.8182C349.43 31.6251 350.32 30.7254 351.438 30.1194C352.555 29.4944 353.786 29.1819 355.131 29.1819C355.661 29.1819 356.116 29.2103 356.494 29.2671C356.892 29.3239 357.167 29.3713 357.318 29.4091V25.7444C357.148 25.7254 356.93 25.7065 356.665 25.6876C356.4 25.6497 356.087 25.6307 355.727 25.6307C353.758 25.6307 352.081 26.1232 350.699 27.108C349.316 28.0739 348.322 29.3713 347.716 31.0001H347.631V26.0001H344.136Z" fill="white"/>
<path fill-rule="evenodd" clip-rule="evenodd" d="M323.519 56.4545C321.625 56.4545 319.892 56.1326 318.32 55.4886C316.748 54.8257 315.498 53.8409 314.57 52.5341C313.642 51.2083 313.178 49.5701 313.178 47.6193C313.178 46.0473 313.471 44.75 314.059 43.7273C314.665 42.7045 315.507 41.8807 316.587 41.2557C317.666 40.6117 318.945 40.1098 320.422 39.75C321.899 39.3901 323.519 39.0966 325.28 38.8693C327.155 38.6041 328.68 38.3863 329.854 38.2159C331.028 38.0265 331.89 37.7519 332.439 37.392C333.007 37.0132 333.291 36.4356 333.291 35.6591V35.2045C333.291 33.9545 332.979 32.8466 332.354 31.8807C331.729 30.9148 330.839 30.1572 329.684 29.6079C328.547 29.0398 327.212 28.7557 325.678 28.7557C324.144 28.7557 322.771 29.0303 321.559 29.5795C320.365 30.1098 319.409 30.8485 318.689 31.7954C317.988 32.7424 317.61 33.803 317.553 34.9773H313.86C313.916 33.1591 314.456 31.5398 315.479 30.1193C316.502 28.6799 317.884 27.5435 319.627 26.7102C321.388 25.8769 323.405 25.4602 325.678 25.4602C327.345 25.4602 328.869 25.6969 330.252 26.1704C331.634 26.6439 332.818 27.3163 333.803 28.1875C334.807 29.0587 335.574 30.0909 336.104 31.2841C336.653 32.4583 336.928 33.7651 336.928 35.2045V56H333.291V51.0852H333.206C332.771 52.0132 332.136 52.8939 331.303 53.7272C330.488 54.5416 329.437 55.2045 328.149 55.7159C326.862 56.2083 325.318 56.4545 323.519 56.4545ZM323.973 53.1307C325.981 53.1307 327.676 52.7519 329.059 51.9943C330.441 51.2367 331.492 50.1951 332.212 48.8693C332.932 47.5246 333.291 45.9905 333.291 44.267V40.0625C333.026 40.3087 332.638 40.5265 332.127 40.7159C331.615 40.8863 331 41.0568 330.28 41.2273C329.56 41.3788 328.765 41.5208 327.894 41.6534C327.023 41.786 326.095 41.9185 325.11 42.0511C323.443 42.2784 321.994 42.6193 320.763 43.0738C319.532 43.5094 318.576 44.106 317.894 44.8636C317.231 45.6023 316.899 46.5776 316.899 47.7897C316.899 48.9261 317.202 49.892 317.809 50.6875C318.415 51.4829 319.248 52.089 320.309 52.5057C321.369 52.9223 322.591 53.1307 323.973 53.1307Z" fill="white"/>
<path d="M275.003 13.6704V56H278.839V36.0852H302.844V56H306.708V13.6704H302.844V32.6193H278.839V13.6704H275.003Z" fill="white"/>
</svg>
